<svg xmlns="http://www.w3.org/2000/svg" viewBox="0 0 64 64">
  <defs>
    <radialGradient id="g" cx="50%" cy="50%" r="50%">
      <stop offset="0%" stop-color="#7dd3fc"/>
      <stop offset="100%" stop-color="#1e3a5f"/>
    </radialGradient>
  </defs>
  <circle cx="32" cy="32" r="30" fill="#0a0e27"/>
  <g transform="translate(32,32)" fill="url(#g)" stroke="#7dd3fc" stroke-width="0.5">
    <polygon points="0,-26 3,-8 0,-12 -3,-8" opacity="0.9"/>
    <polygon points="0,-26 3,-8 0,-12 -3,-8" opacity="0.9" transform="rotate(45)"/>
    <polygon points="0,-26 3,-8 0,-12 -3,-8" opacity="0.9" transform="rotate(90)"/>
    <polygon points="0,-26 3,-8 0,-12 -3,-8" opacity="0.9" transform="rotate(135)"/>
    <polygon points="0,-26 3,-8 0,-12 -3,-8" opacity="0.9" transform="rotate(180)"/>
    <polygon points="0,-26 3,-8 0,-12 -3,-8" opacity="0.9" transform="rotate(225)"/>
    <polygon points="0,-26 3,-8 0,-12 -3,-8" opacity="0.9" transform="rotate(270)"/>
    <polygon points="0,-26 3,-8 0,-12 -3,-8" opacity="0.9" transform="rotate(315)"/>
    <circle cx="0" cy="0" r="6" fill="#7dd3fc"/>
  </g>
</svg>
